<svg xmlns="http://www.w3.org/2000/svg" viewBox="0 0 1600 900"><defs><linearGradient id="bg" x2="1" y2="1"><stop stop-color="#080b10"/><stop offset="1" stop-color="#18212c"/></linearGradient><linearGradient id="car" x2="1" y2="1"><stop stop-color="#f5f8fb"/><stop offset=".55" stop-color="#aeb8c2"/><stop offset="1" stop-color="#4d5965"/></linearGradient><filter id="shadow"><feGaussianBlur stdDeviation="22"/></filter></defs><rect width="1600" height="900" fill="url(#bg)"/><circle cx="1300" cy="150" r="230" fill="#274252" opacity=".35" filter="url(#shadow)"/><text x="100" y="150" fill="#9ca8b6" font-family="Arial,sans-serif" font-size="25" letter-spacing="6">THE MODERN CAR ENCYCLOPEDIA</text><text x="100" y="250" fill="#fff" font-family="Arial,sans-serif" font-size="86" font-weight="700">Get to know your</text><text x="100" y="340" fill="#fff" font-family="Arial,sans-serif" font-size="86" font-weight="700">car.</text><text x="100" y="400" fill="#aab3bf" font-family="Arial,sans-serif" font-size="25">Explore performance, design and specifications.</text><rect x="100" y="455" width="470" height="64" rx="14" fill="#121820" stroke="#303a46"/><text x="130" y="496" fill="#7e8997" font-family="Arial,sans-serif" font-size="20">Search Honda, Lamborghini, Civic...</text><g transform="translate(720 260)"><ellipse cx="400" cy="390" rx="410" ry="45" fill="#000" opacity=".55" filter="url(#shadow)"/><path d="M45 365 L115 245 Q180 125 335 105 L560 110 Q690 130 765 250 L830 365 Q850 400 810 415 L55 415 Q10 400 45 365Z" fill="url(#car)" stroke="#dce4ea" stroke-width="5"/><path d="M190 235 Q245 145 350 137 L535 140 Q635 155 690 235Z" fill="#15202a" stroke="#526170" stroke-width="4"/><path d="M190 235 L350 137 L350 235Z" fill="#314554"/><path d="M350 137 L535 140 L690 235 L350 235Z" fill="#22333f"/><path d="M80 320 Q220 275 380 285 Q590 275 790 320" fill="none" stroke="#fff" stroke-opacity=".45" stroke-width="6"/><rect x="395" y="270" width="180" height="48" rx="12" fill="#111820"/><text x="485" y="301" text-anchor="middle" fill="#fff" font-family="Arial,sans-serif" font-size="18" font-weight="700">CARVERSE</text><circle cx="170" cy="395" r="62" fill="#0a0d11" stroke="#6d7884" stroke-width="12"/><circle cx="170" cy="395" r="25" fill="#aeb8c2"/><circle cx="690" cy="395" r="62" fill="#0a0d11" stroke="#6d7884" stroke-width="12"/><circle cx="690" cy="395" r="25" fill="#aeb8c2"/></g><text x="100" y="780" fill="#fff" font-family="Arial,sans-serif" font-size="34" font-weight="700">CARVERSE</text><text x="100" y="820" fill="#8d98a5" font-family="Arial,sans-serif" font-size="21">Premium automotive discovery experience</text></svg>